<svg xmlns="http://www.w3.org/2000/svg" xmlns:xlink="http://www.w3.org/1999/xlink" version="1.1" width="25" height="25	" viewBox="0 0 256 256" xml:space="preserve">

<defs>
</defs>
<g style="stroke: none; stroke-width: 0; stroke-dasharray: none; stroke-linecap: butt; stroke-linejoin: miter; stroke-miterlimit: 10; fill: none; fill-rule: nonzero; opacity: 1;" transform="translate(1.4065934065934016 1.4065934065934016) scale(2.81 2.81)" >
	<path d="M 1 87.973 c -0.552 0 -1 -0.447 -1 -1 V 3.027 c 0 -0.552 0.448 -1 1 -1 s 1 0.448 1 1 v 83.946 C 2 87.525 1.552 87.973 1 87.973 z" style="stroke: none; stroke-width: 1; stroke-dasharray: none; stroke-linecap: butt; stroke-linejoin: miter; stroke-miterlimit: 10; fill: rgb(0,0,0); fill-rule: nonzero; opacity: 1;" transform=" matrix(1 0 0 1 0 0) " stroke-linecap="round" />
	<path d="M 89 87.973 H 1 c -0.552 0 -1 -0.447 -1 -1 s 0.448 -1 1 -1 h 88 c 0.553 0 1 0.447 1 1 S 89.553 87.973 89 87.973 z" style="stroke: none; stroke-width: 1; stroke-dasharray: none; stroke-linecap: butt; stroke-linejoin: miter; stroke-miterlimit: 10; fill: rgb(0,0,0); fill-rule: nonzero; opacity: 1;" transform=" matrix(1 0 0 1 0 0) " stroke-linecap="round" />
	<path d="M 28.645 87.973 H 16.76 c -0.552 0 -1 -0.447 -1 -1 v -16.86 h -4.069 c -0.389 0 -0.743 -0.226 -0.907 -0.579 c -0.164 -0.353 -0.108 -0.769 0.143 -1.066 l 11.012 -13.042 c 0.38 -0.449 1.148 -0.449 1.528 0 l 11.012 13.042 c 0.251 0.298 0.307 0.714 0.143 1.066 c -0.164 0.354 -0.518 0.579 -0.907 0.579 h -4.069 v 16.86 C 29.645 87.525 29.197 87.973 28.645 87.973 z M 17.76 85.973 h 9.885 v -16.86 c 0 -0.553 0.448 -1 1 -1 h 2.916 L 22.703 57.62 l -8.858 10.492 h 2.916 c 0.552 0 1 0.447 1 1 V 85.973 z" style="stroke: none; stroke-width: 1; stroke-dasharray: none; stroke-linecap: butt; stroke-linejoin: miter; stroke-miterlimit: 10; fill: rgb(0,0,0); fill-rule: nonzero; opacity: 1;" transform=" matrix(1 0 0 1 0 0) " stroke-linecap="round" />
	<path d="M 55.045 87.973 H 43.16 c -0.552 0 -1 -0.447 -1 -1 V 47.368 h -4.069 c -0.389 0 -0.743 -0.226 -0.907 -0.579 c -0.164 -0.353 -0.108 -0.769 0.143 -1.066 l 11.012 -13.042 c 0.379 -0.45 1.148 -0.45 1.527 0 l 11.012 13.042 c 0.252 0.297 0.308 0.713 0.144 1.066 c -0.164 0.354 -0.518 0.579 -0.907 0.579 h -4.069 v 39.604 C 56.045 87.525 55.598 87.973 55.045 87.973 z M 44.16 85.973 h 9.885 V 46.368 c 0 -0.552 0.447 -1 1 -1 h 2.916 l -8.858 -10.492 l -8.858 10.492 h 2.916 c 0.552 0 1 0.448 1 1 V 85.973 z" style="stroke: none; stroke-width: 1; stroke-dasharray: none; stroke-linecap: butt; stroke-linejoin: miter; stroke-miterlimit: 10; fill: rgb(0,0,0); fill-rule: nonzero; opacity: 1;" transform=" matrix(1 0 0 1 0 0) " stroke-linecap="round" />
	<path d="M 81.445 87.973 H 69.561 c -0.553 0 -1 -0.447 -1 -1 V 24.624 h -4.069 c -0.39 0 -0.743 -0.226 -0.907 -0.579 s -0.108 -0.769 0.144 -1.066 L 74.739 9.936 c 0.379 -0.45 1.148 -0.45 1.527 0 l 11.012 13.042 c 0.252 0.297 0.308 0.713 0.144 1.066 s -0.518 0.579 -0.907 0.579 h -4.069 v 62.349 C 82.445 87.525 81.998 87.973 81.445 87.973 z M 70.561 85.973 h 9.885 V 23.624 c 0 -0.552 0.447 -1 1 -1 h 2.916 l -8.858 -10.492 l -8.858 10.492 h 2.916 c 0.553 0 1 0.448 1 1 V 85.973 z" style="stroke: none; stroke-width: 1; stroke-dasharray: none; stroke-linecap: butt; stroke-linejoin: miter; stroke-miterlimit: 10; fill: rgb(0,0,0); fill-rule: nonzero; opacity: 1;" transform=" matrix(1 0 0 1 0 0) " stroke-linecap="round" />
	<path d="M 38.091 22.169 h -26.4 c -0.552 0 -1 -0.448 -1 -1 V 10.246 c 0 -0.552 0.448 -1 1 -1 h 26.4 c 0.552 0 1 0.448 1 1 v 10.923 C 39.091 21.722 38.644 22.169 38.091 22.169 z M 12.691 20.169 h 24.4 v -8.923 h -24.4 V 20.169 z" style="stroke: none; stroke-width: 1; stroke-dasharray: none; stroke-linecap: butt; stroke-linejoin: miter; stroke-miterlimit: 10; fill: rgb(0,0,0); fill-rule: nonzero; opacity: 1;" transform=" matrix(1 0 0 1 0 0) " stroke-linecap="round" />
	<path d="M 38.091 29.39 h -26.4 c -0.552 0 -1 -0.448 -1 -1 s 0.448 -1 1 -1 h 26.4 c 0.552 0 1 0.448 1 1 S 38.644 29.39 38.091 29.39 z" style="stroke: none; stroke-width: 1; stroke-dasharray: none; stroke-linecap: butt; stroke-linejoin: miter; stroke-miterlimit: 10; fill: rgb(0,0,0); fill-rule: nonzero; opacity: 1;" transform=" matrix(1 0 0 1 0 0) " stroke-linecap="round" />
	<path d="M 24.242 37.278 H 11.691 c -0.552 0 -1 -0.448 -1 -1 s 0.448 -1 1 -1 h 12.551 c 0.552 0 1 0.448 1 1 S 24.794 37.278 24.242 37.278 z" style="stroke: none; stroke-width: 1; stroke-dasharray: none; stroke-linecap: butt; stroke-linejoin: miter; stroke-miterlimit: 10; fill: rgb(0,0,0); fill-rule: nonzero; opacity: 1;" transform=" matrix(1 0 0 1 0 0) " stroke-linecap="round" />
</g>
</svg>