<svg xmlns="http://www.w3.org/2000/svg" xmlns:xlink="http://www.w3.org/1999/xlink" version="1.1" width="28" height="28" viewBox="0 0 256 256" xml:space="preserve">

<defs>
</defs>
<g style="stroke: none; stroke-width: 0; stroke-dasharray: none; stroke-linecap: butt; stroke-linejoin: miter; stroke-miterlimit: 10; fill: none; fill-rule: nonzero; opacity: 1;" transform="translate(1.4065934065934016 1.4065934065934016) scale(2.81 2.81)" >
	<path d="M 45 0 C 20.187 0 0 20.187 0 45 c 0 24.813 20.187 45 45 45 c 24.813 0 45 -20.187 45 -45 C 90 20.187 69.813 0 45 0 z M 45 88 C 21.29 88 2 68.71 2 45 C 2 21.29 21.29 2 45 2 c 23.71 0 43 19.29 43 43 C 88 68.71 68.71 88 45 88 z" style="stroke: none; stroke-width: 1; stroke-dasharray: none; stroke-linecap: butt; stroke-linejoin: miter; stroke-miterlimit: 10; fill: rgb(0,0,0); fill-rule: nonzero; opacity: 1;" transform=" matrix(1 0 0 1 0 0) " stroke-linecap="round" />
	<path d="M 13.856 40.733 H 10 c -0.552 0 -1 0.448 -1 1 v 5.908 v 4.625 c 0 0.553 0.448 1 1 1 s 1 -0.447 1 -1 v -3.625 h 2.856 c 1.683 0 3.052 -1.369 3.052 -3.052 v -1.804 C 16.908 42.103 15.539 40.733 13.856 40.733 z M 14.908 45.589 c 0 0.581 -0.472 1.052 -1.052 1.052 H 11 v -3.908 h 2.856 c 0.58 0 1.052 0.472 1.052 1.052 V 45.589 z" style="stroke: none; stroke-width: 1; stroke-dasharray: none; stroke-linecap: butt; stroke-linejoin: miter; stroke-miterlimit: 10; fill: rgb(0,0,0); fill-rule: nonzero; opacity: 1;" transform=" matrix(1 0 0 1 0 0) " stroke-linecap="round" />
	<path d="M 20.625 53.267 c 0.552 0 1 -0.447 1 -1 V 48 h 2.626 c 0.559 0 1.014 0.455 1.014 1.014 v 3.253 c 0 0.553 0.448 1 1 1 s 1 -0.447 1 -1 v -3.253 c 0 -0.777 -0.303 -1.479 -0.788 -2.014 c 0.484 -0.535 0.788 -1.237 0.788 -2.014 v -1.239 c 0 -1.662 -1.352 -3.014 -3.014 -3.014 h -3.626 c -0.552 0 -1 0.448 -1 1 V 47 v 5.267 C 19.625 52.819 20.072 53.267 20.625 53.267 z M 21.625 42.733 h 2.626 c 0.559 0 1.014 0.455 1.014 1.014 v 1.239 c 0 0.559 -0.455 1.014 -1.014 1.014 h -2.626 V 42.733 z" style="stroke: none; stroke-width: 1; stroke-dasharray: none; stroke-linecap: butt; stroke-linejoin: miter; stroke-miterlimit: 10; fill: rgb(0,0,0); fill-rule: nonzero; opacity: 1;" transform=" matrix(1 0 0 1 0 0) " stroke-linecap="round" />
	<path d="M 31.577 53.267 h 5.328 c 0.552 0 1 -0.447 1 -1 s -0.448 -1 -1 -1 h -4.328 V 48 h 2.713 c 0.552 0 1 -0.447 1 -1 s -0.448 -1 -1 -1 h -2.713 v -3.267 h 4.328 c 0.552 0 1 -0.448 1 -1 s -0.448 -1 -1 -1 h -5.328 c -0.552 0 -1 0.448 -1 1 v 10.533 C 30.577 52.819 31.024 53.267 31.577 53.267 z" style="stroke: none; stroke-width: 1; stroke-dasharray: none; stroke-linecap: butt; stroke-linejoin: miter; stroke-miterlimit: 10; fill: rgb(0,0,0); fill-rule: nonzero; opacity: 1;" transform=" matrix(1 0 0 1 0 0) " stroke-linecap="round" />
	<path d="M 49.717 53.267 c 0.553 0 1 -0.447 1 -1 V 41.733 c 0 -0.434 -0.28 -0.819 -0.693 -0.952 c -0.41 -0.133 -0.864 0.015 -1.118 0.368 l -2.976 4.138 l -2.976 -4.138 c -0.254 -0.353 -0.707 -0.501 -1.119 -0.368 c -0.413 0.133 -0.693 0.518 -0.693 0.952 v 10.533 c 0 0.553 0.448 1 1 1 s 1 -0.447 1 -1 v -7.43 l 1.976 2.748 c 0.376 0.521 1.247 0.521 1.624 0 l 1.976 -2.748 v 7.43 C 48.717 52.819 49.164 53.267 49.717 53.267 z" style="stroke: none; stroke-width: 1; stroke-dasharray: none; stroke-linecap: butt; stroke-linejoin: miter; stroke-miterlimit: 10; fill: rgb(0,0,0); fill-rule: nonzero; opacity: 1;" transform=" matrix(1 0 0 1 0 0) " stroke-linecap="round" />
	<path d="M 54.146 41.733 v 10.533 c 0 0.553 0.447 1 1 1 s 1 -0.447 1 -1 V 41.733 c 0 -0.552 -0.447 -1 -1 -1 S 54.146 41.181 54.146 41.733 z" style="stroke: none; stroke-width: 1; stroke-dasharray: none; stroke-linecap: butt; stroke-linejoin: miter; stroke-miterlimit: 10; fill: rgb(0,0,0); fill-rule: nonzero; opacity: 1;" transform=" matrix(1 0 0 1 0 0) " stroke-linecap="round" />
	<path d="M 60.647 40.733 c -0.553 0 -1 0.448 -1 1 v 8.262 c 0 1.804 1.467 3.271 3.271 3.271 h 1.996 c 1.804 0 3.271 -1.468 3.271 -3.271 v -8.262 c 0 -0.552 -0.447 -1 -1 -1 s -1 0.448 -1 1 v 8.262 c 0 0.701 -0.57 1.271 -1.271 1.271 h -1.996 c -0.7 0 -1.271 -0.57 -1.271 -1.271 v -8.262 C 61.647 41.181 61.2 40.733 60.647 40.733 z" style="stroke: none; stroke-width: 1; stroke-dasharray: none; stroke-linecap: butt; stroke-linejoin: miter; stroke-miterlimit: 10; fill: rgb(0,0,0); fill-rule: nonzero; opacity: 1;" transform=" matrix(1 0 0 1 0 0) " stroke-linecap="round" />
	<path d="M 80.307 40.782 c -0.408 -0.133 -0.864 0.015 -1.118 0.368 l -2.977 4.138 l -2.977 -4.138 c -0.254 -0.353 -0.708 -0.501 -1.118 -0.368 c -0.413 0.133 -0.693 0.518 -0.693 0.952 v 10.533 c 0 0.553 0.447 1 1 1 s 1 -0.447 1 -1 v -7.43 l 1.977 2.748 c 0.375 0.521 1.248 0.521 1.623 0 L 79 44.836 v 7.43 c 0 0.553 0.447 1 1 1 s 1 -0.447 1 -1 V 41.733 C 81 41.299 80.72 40.915 80.307 40.782 z" style="stroke: none; stroke-width: 1; stroke-dasharray: none; stroke-linecap: butt; stroke-linejoin: miter; stroke-miterlimit: 10; fill: rgb(0,0,0); fill-rule: nonzero; opacity: 1;" transform=" matrix(1 0 0 1 0 0) " stroke-linecap="round" />
	<path d="M 59.435 19.842 c 5.905 3.396 10.448 8.777 12.792 15.152 c 0.148 0.404 0.531 0.655 0.938 0.655 c 0.114 0 0.231 -0.02 0.345 -0.062 c 0.519 -0.19 0.784 -0.765 0.594 -1.284 c -2.505 -6.813 -7.36 -12.565 -13.673 -16.195 c -0.479 -0.276 -1.09 -0.11 -1.365 0.368 C 58.79 18.956 58.955 19.566 59.435 19.842 z" style="stroke: none; stroke-width: 1; stroke-dasharray: none; stroke-linecap: butt; stroke-linejoin: miter; stroke-miterlimit: 10; fill: rgb(0,0,0); fill-rule: nonzero; opacity: 1;" transform=" matrix(1 0 0 1 0 0) " stroke-linecap="round" />
	<path d="M 71.858 58.397 c -0.485 -0.264 -1.093 -0.083 -1.355 0.402 C 65.418 68.176 55.646 74 45 74 c -10.646 0 -20.418 -5.824 -25.503 -15.2 c -0.263 -0.485 -0.872 -0.665 -1.355 -0.402 c -0.486 0.263 -0.666 0.87 -0.402 1.355 C 23.174 69.774 33.62 76 45 76 c 11.381 0 21.826 -6.226 27.261 -16.247 C 72.524 59.268 72.344 58.66 71.858 58.397 z" style="stroke: none; stroke-width: 1; stroke-dasharray: none; stroke-linecap: butt; stroke-linejoin: miter; stroke-miterlimit: 10; fill: rgb(0,0,0); fill-rule: nonzero; opacity: 1;" transform=" matrix(1 0 0 1 0 0) " stroke-linecap="round" />
	<path d="M 38.609 19.521 l -0.86 5.015 c -0.123 0.716 0.167 1.425 0.754 1.852 c 0.332 0.241 0.72 0.364 1.11 0.364 c 0.301 0 0.604 -0.073 0.883 -0.22 l 4.454 -2.394 l 4.553 2.393 c 0.642 0.338 1.406 0.285 1.994 -0.144 c 0.587 -0.426 0.876 -1.136 0.753 -1.852 l -0.859 -5.015 l 3.644 -3.551 c 0.52 -0.506 0.703 -1.25 0.479 -1.94 c -0.224 -0.69 -0.81 -1.185 -1.528 -1.289 l -5.011 -0.681 l -2.276 -4.613 C 46.376 6.795 45.726 6.391 45 6.391 s -1.376 0.404 -1.698 1.056 l -2.251 4.563 l -5.035 0.731 c -0.719 0.104 -1.305 0.598 -1.529 1.289 c -0.224 0.69 -0.041 1.434 0.479 1.94 L 38.609 19.521 z M 41.393 13.98 c 0.617 -0.089 1.15 -0.476 1.426 -1.036 L 45 8.526 l 2.182 4.421 c 0.277 0.558 0.811 0.944 1.425 1.033 l 4.876 0.708 l -3.527 3.439 c -0.447 0.435 -0.651 1.062 -0.545 1.676 l 0.832 4.857 l -4.362 -2.293 c -0.55 -0.289 -1.208 -0.29 -1.761 0 l -4.362 2.293 l 0.833 -4.856 c 0.106 -0.614 -0.098 -1.241 -0.544 -1.676 l -3.529 -3.439 L 41.393 13.98 z" style="stroke: none; stroke-width: 1; stroke-dasharray: none; stroke-linecap: butt; stroke-linejoin: miter; stroke-miterlimit: 10; fill: rgb(0,0,0); fill-rule: nonzero; opacity: 1;" transform=" matrix(1 0 0 1 0 0) " stroke-linecap="round" />
</g>
</svg>